<?xml version="1.0" encoding="utf-8"?>
<!-- Generator: Adobe Illustrator 16.0.0, SVG Export Plug-In . SVG Version: 6.00 Build 0)  -->
<!DOCTYPE svg PUBLIC "-//W3C//DTD SVG 1.1//EN" "http://www.w3.org/Graphics/SVG/1.1/DTD/svg11.dtd">
<svg version="1.1" id="Layer_1" xmlns="http://www.w3.org/2000/svg" xmlns:xlink="http://www.w3.org/1999/xlink" x="0px" y="0px"
	 width="475px" height="260px" viewBox="0 0 475 260" enable-background="new 0 0 475 260" xml:space="preserve">
<path fill="#F7971D" d="M146.795,144.958c22.774-23.979,54.96-38.933,90.642-38.933V2.727c-65.629,0-124.776,27.701-166.42,72.038
	L146.795,144.958z"/>
<path fill="#EE4538" d="M70.893,74.895C33.506,114.761,10.26,168.047,9.179,226.758h103.325
	c1.072-31.812,14.032-60.607,34.574-82.095L70.893,74.895z"/>
<path fill="#4CAE4E" d="M324.408,142.107c21.993,21.731,35.974,51.558,37.086,84.65h103.327
	c-1.133-61.511-26.596-117.069-67.16-157.475L324.408,142.107z"/>
<path fill="#F8CA0F" d="M237.437,2.727v103.298c34.068,0,64.947,13.633,87.494,35.737l73.329-72.754
	C356.996,28.042,300.177,2.727,237.437,2.727z"/>
</svg>
