<?xml version="1.0" encoding="utf-8"?>
<!-- Generator: Adobe Illustrator 16.0.0, SVG Export Plug-In . SVG Version: 6.00 Build 0)  -->
<!DOCTYPE svg PUBLIC "-//W3C//DTD SVG 1.1//EN" "http://www.w3.org/Graphics/SVG/1.1/DTD/svg11.dtd">
<svg version="1.1" id="Layer_1" xmlns="http://www.w3.org/2000/svg" xmlns:xlink="http://www.w3.org/1999/xlink" x="0px" y="0px"
	 width="475px" height="260px" viewBox="0 0 475 260" enable-background="new 0 0 475 260" xml:space="preserve">
<path fill="#F7971D" d="M146.795,144.958c22.774-23.979,54.96-38.933,90.642-38.933V2.727c-65.629,0-124.776,27.701-166.42,72.038
	L146.795,144.958z"/>
<path fill="#EE4538" d="M70.893,74.895C33.506,114.761,10.26,168.047,9.179,226.758h103.325
	c1.072-31.812,14.032-60.607,34.574-82.095L70.893,74.895z"/>
<path fill="#4CAE4E" d="M324.408,142.107c21.993,21.731,35.974,51.558,37.086,84.65h103.327
	c-1.133-61.511-26.596-117.069-67.16-157.475L324.408,142.107z"/>
<path fill="#F8CA0F" d="M237.437,2.727v103.298c34.068,0,64.947,13.633,87.494,35.737l73.329-72.754
	C356.996,28.042,300.177,2.727,237.437,2.727z"/>
<g>
	<path fill="#FFFFFF" stroke="#3375B5" stroke-width="3" stroke-miterlimit="10" d="M252.484,253.377
		c17.365-4.457,27.776-22.246,23.241-39.725c-4.537-17.476-22.294-28.021-39.656-23.561c-17.372,4.463-27.773,22.246-23.245,39.724
		C217.354,247.291,235.114,257.842,252.484,253.377z"/>
	<polygon fill="#0067A3" stroke="#FFFFFF" stroke-width="12" stroke-linejoin="round" stroke-miterlimit="10" points="163.31,98.19 
		241.949,227.707 249.928,221.925 	"/>
	<path fill="#3375B5" d="M249.976,243.689c12.05-3.096,19.265-15.434,16.123-27.563c-3.147-12.122-15.464-19.445-27.518-16.349
		c-12.054,3.099-19.274,15.439-16.128,27.563C225.6,239.468,237.917,246.788,249.976,243.689z"/>
</g>
</svg>
