<?xml version="1.0" encoding="utf-8"?>
<!-- Generator: Adobe Illustrator 16.0.0, SVG Export Plug-In . SVG Version: 6.00 Build 0)  -->
<!DOCTYPE svg PUBLIC "-//W3C//DTD SVG 1.1//EN" "http://www.w3.org/Graphics/SVG/1.1/DTD/svg11.dtd">
<svg version="1.1" id="Layer_1" xmlns="http://www.w3.org/2000/svg" xmlns:xlink="http://www.w3.org/1999/xlink" x="0px" y="0px"
	 width="475px" height="260px" viewBox="0 0 475 260" enable-background="new 0 0 475 260" xml:space="preserve">
<g>
	<path fill="#F7971D" d="M146.795,144.958c22.774-23.979,54.96-38.933,90.642-38.933V2.727c-65.629,0-124.776,27.701-166.42,72.038
		L146.795,144.958z"/>
	<path fill="#EE4538" d="M70.893,74.895C33.506,114.761,10.26,168.047,9.179,226.758h103.325
		c1.072-31.812,14.032-60.607,34.574-82.095L70.893,74.895z"/>
	<path fill="#4CAE4E" d="M324.408,142.107c21.993,21.731,35.974,51.558,37.086,84.65h103.327
		c-1.133-61.511-26.596-117.069-67.16-157.475L324.408,142.107z"/>
	<path fill="#F8CA0F" d="M237.437,2.727v103.298c34.068,0,64.947,13.633,87.494,35.737l73.329-72.754
		C356.996,28.042,300.177,2.727,237.437,2.727z"/>
	<g>
		<path fill="#FFFFFF" stroke="#3375B5" stroke-width="3" stroke-miterlimit="10" d="M266.461,243.87
			c11.285-13.931,9.04-34.419-5.021-45.749c-14.06-11.326-34.604-9.211-45.885,4.721c-11.287,13.941-9.037,34.42,5.016,45.753
			C234.626,259.926,255.176,257.809,266.461,243.87z"/>
		<polygon fill="#0067A3" stroke="#FFFFFF" stroke-width="12" stroke-linejoin="round" stroke-miterlimit="10" points="
			102.353,172.427 242.7,229.539 245.659,220.142 		"/>
		<path fill="#3375B5" d="M258.672,237.588c7.829-9.669,6.267-23.876-3.486-31.743c-9.755-7.856-24.008-6.395-31.839,3.277
			c-7.831,9.674-6.271,23.886,3.482,31.746C236.583,248.729,250.837,247.264,258.672,237.588z"/>
	</g>
</g>
</svg>
